<?xml version="1.0" encoding="utf-8"?>
<!-- Generator: Adobe Illustrator 19.2.1, SVG Export Plug-In . SVG Version: 6.00 Build 0)  -->
<svg version="1.1" id="レイヤー_1" xmlns="http://www.w3.org/2000/svg" xmlns:xlink="http://www.w3.org/1999/xlink" x="0px"
	 y="0px" viewBox="0 0 318 34" style="enable-background:new 0 0 318 34;" xml:space="preserve">
<style type="text/css">
	.st0{fill:#FFFFFF;}
</style>
<g>
	<path class="st0" d="M24.7,10.2c0,0.7-0.5,1.3-1.4,1.3c-0.8,0-0.9-0.2-1.9-2.1c-0.5-0.9-2.1-4.1-7-4.1c-3.3,0-5.3,1.5-6.2,2.8
		c-2.3,3.1-2.5,7.5-2.5,9c0,7.8,3.8,11.4,8.7,11.4c1.9,0,5.8-0.8,7.8-5.6c0.2-0.6,0.5-1.2,1.3-1.2c0.7,0,1.3,0.6,1.3,1.5
		c0,1.6-2.9,8.1-10.5,8.1c-7.3,0-11.7-5.8-11.7-14.1c0-10.2,5.3-14.7,12-14.7C21.4,2.6,24.7,8.4,24.7,10.2z"/>
	<path class="st0" d="M44,27.2c-0.7,2.1-1.7,2.5-2.8,2.5c-1.6,0-2.2-1.1-2.7-2.5L31.7,6.6C31.6,6.3,31.5,6,31.2,6
		c-0.4,0-0.4,0.6-0.4,0.8v23.3c0,0.6-0.5,1.3-1.3,1.3c-0.7,0-1.3-0.5-1.3-1.3V5.6c0-1.8,0.9-3,2.9-3c1.7,0,2.5,1.2,2.9,2.6L40.5,25
		c0.3,1.1,0.4,1.2,0.7,1.2c0.4,0,0.4-0.1,0.8-1.2l6.5-19.8c0.8-2.5,2.3-2.5,3-2.5c0.5,0,2.8,0,2.8,3v24.5c0,0.6-0.4,1.3-1.3,1.3
		c-0.7,0-1.3-0.5-1.3-1.3V6.8c0-0.2,0-0.8-0.5-0.8c-0.3,0-0.4,0.3-0.5,0.6L44,27.2z"/>
	<path class="st0" d="M76.6,8.5c0,0.8-0.5,1.4-1.3,1.4c-0.5,0-0.8-0.2-1.3-1c-0.6-0.9-2.6-3.7-6.8-3.7c-3.4,0-5.6,2.1-5.6,4.7
		c0,3,3.1,4,7.5,5.4c4.2,1.4,8.3,2.8,8.3,7.9c0,4.7-4.2,8.3-9.7,8.3c-7.1,0-10.5-5.8-10.5-7.9c0-0.7,0.5-1.4,1.4-1.4
		c0.8,0,0.9,0.2,2,2.4c1.5,2.9,4.2,4.2,7.2,4.2c4.3,0,6.9-2.6,6.9-5.4c0-3.3-2.9-4.3-4.9-5c-6-2-6.6-2.3-8-3.2
		c-2.9-2-2.9-4.3-2.9-5.1c0-4.5,3.8-7.4,8.6-7.4C73.5,2.6,76.6,7.2,76.6,8.5z"/>
	<path class="st0" d="M81,13.1c-0.9,0-2.1,0-2.1-1.2s1.1-1.3,2.1-1.3h12.4V3.5c0-0.9,0-2.1,1.2-2.1c1.3,0,1.3,1.1,1.3,2.1v7.1h12.6
		c0.9,0,2.1,0,2.1,1.3s-1.1,1.2-2.1,1.2H95.9c1.1,11,9.8,15.9,12.5,17.4c2,1.1,2.2,1.2,2.2,1.9c0,0.9-0.9,1.3-1.3,1.3
		c-0.8,0-5.4-2.7-8.4-5.6c-3.9-3.8-5.5-7.8-6.1-9.4c-0.5,1.7-2.1,6.4-7.1,10.6c-3.1,2.6-6.6,4.3-7.6,4.3c-0.8,0-1.2-0.7-1.2-1.2
		c0-0.8,0.4-0.9,1.7-1.6c11.7-5.6,12.4-14.9,12.6-17.7H81z"/>
	<path class="st0" d="M116.9,5c-1.2,0-1.2,0.2-1.2,1.4v25.6c0,0.8,0,1.9-1.1,1.9c-1.2,0-1.2-1-1.2-1.9V6.3c0-1.6,0-3.6,2.5-3.6h5.9
		c0.8,0,2.2,0,2.2,2.1c0,4-2.2,7.2-3.3,8.8c2.9,3.4,3.5,6.2,3.5,8.3c0,2.7-1.4,4.6-4.9,4.6c-0.8,0-2.7-0.1-2.7-1.4
		c0-0.6,0.3-1.2,1-1.2c0.5,0,1.5,0.2,1.8,0.2c2,0,2.3-1.2,2.3-2.6c0-1.2-0.2-3.5-3.2-7c-0.2-0.2-0.5-0.6-0.5-1
		c0-0.3,0.1-0.5,0.4-0.9c1.5-1.9,3.1-4.9,3.1-6.9c0-0.7-0.4-0.8-1.2-0.8H116.9z M128.5,14c-0.2,9.4-0.8,13.4-4.1,18.4
		c-0.4,0.6-0.8,1-1.4,1c-0.9,0-1.1-0.7-1.1-1.2c0-0.1,0.1-0.4,0.3-0.8c3.7-5.7,3.9-9.2,3.9-19.6V5.7c0-1.1,0.2-2.9,2.9-2.9h12.9
		c0.9,0,2,0,2,1.2c0,1.2-1.1,1.2-2,1.2h-12.2c-1.1,0-1.2,0.5-1.2,1.3v5.2h11.8c2.3,0,2.3,1.7,2.3,2.5c0,2.5-1.8,7.7-5.2,11.9
		c1,1.2,2.9,3.2,5.6,5.1c0.6,0.5,1,0.8,1,1.4c0,0.7-0.6,1.1-1.1,1.1c-1.1,0-4.3-2.5-7.1-5.8c-3.6,3.6-7.6,5.6-8.4,5.6
		c-0.6,0-1.1-0.6-1.1-1.2c0-0.7,0.6-1,1-1.3c1.5-0.7,4.1-2.1,7.1-5.1c-3.4-5-4.3-9.5-4.5-11.9H128.5z M132.1,14
		c0.1,1.5,0.8,5.7,3.8,10c2.9-3.7,4.2-7.9,4.2-9.3c0-0.6-0.4-0.7-1-0.7H132.1z"/>
	<path class="st0" d="M153.8,20.8c-2.9,0-3.2-1.9-3.2-2.8V9.6c0-1,0.4-2.8,3.2-2.8h6.9l0.6-2h-13.1c-0.8,0-1.7,0-1.7-1
		c0-1,0.9-1,1.7-1h28.7c0.8,0,1.7,0,1.7,1c0,1-0.9,1-1.7,1h-13.1l-0.6,2h8.3c2.8,0,3.2,1.9,3.2,2.8V18c0,1-0.4,2.8-3.2,2.8H160
		c-0.6,0.8-1.1,1.4-1.8,2h13c1.7,0,2.3,0.9,2.3,1.7c0,1.9-3.4,3.7-6.2,4.9c3.5,1.1,6.6,1.6,10.3,1.9c0.7,0,1.5,0.2,1.5,1.1
		c0,1.1-1.2,1.1-1.5,1.1c-4.6,0-9.1-1-13.3-2.8c-6.6,2.4-14.3,2.9-14.6,2.9c-0.6,0-1.4,0-1.4-1.1c0-0.9,0.7-1.1,2.1-1.2
		c2-0.2,7.2-0.8,11-2c-0.6-0.4-3.1-1.7-5.4-4.4c-5,4.1-8.5,4.8-8.7,4.8c-0.6,0-1.1-0.4-1.1-1.1c0-0.7,0.3-0.8,1.8-1.4
		c2-0.8,5.6-2.4,9.1-6.4H153.8z M172.4,10.8V10c0-0.3-0.3-1.2-1.4-1.2h-16.7c-1.2,0-1.4,0.9-1.4,1.2v0.8H172.4z M152.9,12.7v2.2
		h19.5v-2.2H152.9z M152.9,16.7v0.8c0,0.2,0.2,1.2,1.4,1.2H171c1.1,0,1.4-0.9,1.4-1.2v-0.8H152.9z M158.9,24.9
		c1.7,1.6,3.5,2.6,5.3,3.5c3.4-1.4,5.7-2.8,5.7-3.2c0-0.2-0.2-0.3-0.5-0.3H158.9z"/>
	<path class="st0" d="M188.4,6c-1.8,2.3-5,4.7-5.8,4.7c-0.6,0-1.1-0.5-1.1-1.2c0-0.6,0-0.6,1.7-1.8c1.5-1.1,3.6-2.5,5.5-6.3
		c0.2-0.5,0.4-0.8,1-0.8c0.8,0,1.2,0.5,1.2,1c0,0.4-0.5,1.4-0.8,2h5.5c0.9,0,2.6,0,2.6,2.1c0,2-2.3,7-8.8,11c-2.7,1.7-6.3,3.2-7,3.2
		s-1.2-0.6-1.2-1.2c0-0.7,0.8-1,1-1.2c1.2-0.5,4.6-2,5.3-2.5c-0.7-0.8-1.7-1.9-2.1-2.3c-0.7-0.7-1-0.9-1-1.4c0-0.7,0.6-1.1,1.1-1.1
		c0.4,0,0.6,0,3.9,3.6c0.1-0.1,1-0.8,2.2-1.8c-0.3-0.3-1.1-1.1-1.8-1.6c-1.9-1.5-2.1-1.6-2.1-2.1c0-0.7,0.6-1.1,1-1.1
		c0.8,0,2.9,1.8,4.4,3.2c0.6-0.8,2.3-3.1,2.3-4c0-0.6-0.5-0.6-1-0.6H188.4z M182.9,33.1c-0.6,0-1.2-0.5-1.2-1.2
		c0-0.5,0.1-0.6,1.6-1.7c3.1-2.2,3.9-3.2,5.6-5.6c0.4-0.5,0.7-0.9,1.3-0.9c0.9,0,1.3,0.8,1.2,1.3C191,27.2,184.5,33.1,182.9,33.1z
		 M199.3,30.7c0,1,0,2.8-2.6,2.8c-1.2,0-3.5-0.6-5.2-1.6c-0.5-0.3-0.7-0.6-0.7-1.1c0-0.7,0.6-1.2,1.1-1.2c0.3,0,0.5,0.1,1.9,0.7
		c1,0.5,2,0.6,2.2,0.6c0.7,0,0.8-0.3,0.8-1v-7.3h-10.5c-0.9,0-2,0-2-1.2c0-1.2,1.1-1.2,2-1.2h23.2c0.9,0,2,0,2,1.2
		c0,1.2-1,1.2-2,1.2h-10.2V30.7z M193.7,17c-0.8,0-1.9,0-1.9-1.1c0-1.2,1-1.2,1.9-1.2h9.3c0.8,0,1.9,0,1.9,1.1c0,1.2-1,1.2-1.9,1.2
		H193.7z M203.4,5.5c-0.8,0-1.8,0-1.8-1.1s1-1.1,1.8-1.1h6c1.4,0,2.5,0.2,2.5,1.9c0,2.4-3.9,5.4-6.4,7.1c1.5,1.6,3.9,3.2,7.7,4.6
		c1,0.4,1.3,0.7,1.3,1.2c0,0.1,0,1.3-1.1,1.3c-1.3,0-9.1-2.9-13.4-10.6c-1.2-2.2-2.1-4.8-2.1-5.3c0-0.6,0.5-1.1,1.1-1.1
		c0.7,0,1,0.5,1.2,1.2c0.7,2,2.2,5,3.9,7.1c2.6-1.6,5-3.9,5-4.6c0-0.6-0.6-0.6-1-0.6H203.4z M212.7,33c-2,0-9.7-6.4-9.7-8.1
		c0-0.7,0.5-1.2,1.2-1.2c0.5,0,0.6,0.1,1.6,1.3c2.1,2.3,3.9,3.6,5.7,4.7c2,1.2,2.3,1.3,2.3,2C213.8,32.6,213.1,33,212.7,33z"/>
	<path class="st0" d="M221.2,4.4c0,1.1-0.4,2.8-0.6,4c-0.4,2.8-0.5,4.3-0.5,5.9c0,1.7,0,5.3,2.1,5.3c0.5,0,1.3-0.4,1.7-0.8
		c0.7-0.6,0.9-0.8,1.3-0.8c0.7,0,1.2,0.6,1.2,1.2c0,1-2.3,2.9-4.8,2.9c-2.9,0-4-2.9-4-7.6c0-2.9,0.6-8.1,0.9-10.1
		c0.1-0.6,0.3-1.1,1-1.3C220.2,3,221.2,3.4,221.2,4.4z M231.2,30.1c-3.9,2.1-7.4,2.4-7.8,2.4c-0.7,0-1.4-0.6-1.4-1.3
		c0-1.1,0.5-1.2,2.2-1.4c3.6-0.6,7-2.1,9.3-4.4c2.5-2.5,3.3-5.6,3.3-12.2c0-1.3-0.1-5.1-0.5-8.4c0-0.3,0-0.5,0-0.6
		c0-0.9,0.7-1.4,1.3-1.4c0.6,0,0.9,0.3,1.1,0.5c0.6,0.7,0.7,6.9,0.7,8.1C239.5,20.7,238.7,26,231.2,30.1z"/>
	<path class="st0" d="M259.8,28.1c0.8,0,1.2,0.7,1.2,1.3s-0.5,1.3-1.2,1.3H246c-2.1,0-3-1.3-3-3.2c0-5.6,6.3-9.6,8.7-11.1
		c3.3-2,6-3.7,6-6.8c0-0.9-0.3-4.4-5.3-4.4c-4.8,0-6.1,3.2-6.4,4.4c-0.5,1.7-0.6,2.4-1.7,2.4c-0.8,0-1.2-0.6-1.2-1.5
		c0-2.5,2.3-8,9.3-8c5.7,0,8.1,3.7,8.1,7.1c0,4.4-3.5,6.6-6.5,8.6c-3.5,2.2-8,5.5-8,9c0,0.7,0.4,0.9,0.8,0.9H259.8z"/>
	<path class="st0" d="M281.5,17c0,7-1.7,14.4-9.2,14.4c-7.4,0-9.2-7-9.2-14.4c0-6.8,1.6-14.4,9.2-14.4C279.7,2.6,281.5,9.7,281.5,17
		z M265.8,17c0,6.8,1.6,11.7,6.5,11.7c4.9,0,6.5-4.8,6.5-11.7c0-6.8-1.6-11.7-6.5-11.7C267.2,5.3,265.8,10.5,265.8,17z"/>
	<path class="st0" d="M289.8,7.1l-3.1,3.7c-0.3,0.4-0.7,0.5-0.9,0.5c-0.9,0-1.4-0.7-1.4-1.3c0-0.4,0.2-0.7,0.4-1l4.8-5.6
		c0.5-0.6,1-0.7,1.5-0.7c0.8,0,1.4,0.4,1.4,1.2v26.3c0,0.6-0.6,1.3-1.4,1.3c-0.7,0-1.3-0.6-1.3-1.3V7.1z"/>
	<path class="st0" d="M307.2,12.7c4.4,0,8.3,3.3,8.3,9c0,4.8-2.9,9.7-9.1,9.7c-8.9,0-9.3-9.8-9.3-12.9c0-7.8,2-15.9,10.2-15.9
		c5.9,0,7.7,4.2,7.7,5.3c0,0.6-0.5,1.3-1.2,1.3c-0.2,0-0.8-0.1-1.1-0.6c-1.1-1.8-2-3.3-5.6-3.3c-5.6,0-6.6,5.3-7.4,11
		C300.5,15.4,302.9,12.7,307.2,12.7z M312.8,22c0-1.8-0.5-6.5-5.8-6.5c-3.3,0-7,2.1-7,6.5c0,1.9,1,6.8,6.3,6.8
		C310.3,28.7,312.8,26.7,312.8,22z"/>
</g>
</svg>
